<?xml version="1.0" encoding="UTF-8"?> <svg xmlns="http://www.w3.org/2000/svg" width="156" height="80" viewBox="0 0 156 80" fill="none"> <rect width="156" height="80" fill="white"></rect> <path d="M84.63 30H79.575C79.385 30 79.245 29.96 79.155 29.88C79.075 29.79 79.035 29.65 79.035 29.46V19.74C79.035 19.55 79.075 19.415 79.155 19.335C79.245 19.245 79.385 19.2 79.575 19.2H84.63C85.88 19.2 86.805 19.45 87.405 19.95C88.015 20.45 88.32 21.22 88.32 22.26V26.94C88.32 27.98 88.015 28.75 87.405 29.25C86.805 29.75 85.88 30 84.63 30ZM82.44 22.065V27.165H84.225C84.465 27.165 84.64 27.105 84.75 26.985C84.87 26.865 84.93 26.68 84.93 26.43V22.785C84.93 22.535 84.87 22.355 84.75 22.245C84.64 22.125 84.465 22.065 84.225 22.065H82.44ZM98.4764 30H93.7514C92.5014 30 91.5714 29.75 90.9614 29.25C90.3614 28.75 90.0614 27.98 90.0614 26.94V22.26C90.0614 21.22 90.3614 20.45 90.9614 19.95C91.5714 19.45 92.5014 19.2 93.7514 19.2H97.5014C97.6914 19.2 97.8264 19.245 97.9064 19.335C97.9964 19.415 98.0414 19.55 98.0414 19.74V21.555C98.0414 21.745 97.9964 21.885 97.9064 21.975C97.8264 22.055 97.6914 22.095 97.5014 22.095H94.3814C94.0714 22.095 93.8414 22.16 93.6914 22.29C93.5414 22.41 93.4664 22.595 93.4664 22.845V26.43C93.4664 26.68 93.5214 26.865 93.6314 26.985C93.7514 27.105 93.9264 27.165 94.1564 27.165H95.6114V24.825C95.6114 24.635 95.6514 24.5 95.7314 24.42C95.8214 24.33 95.9614 24.285 96.1514 24.285H98.4764C98.6664 24.285 98.8014 24.33 98.8814 24.42C98.9714 24.5 99.0164 24.635 99.0164 24.825V29.46C99.0164 29.65 98.9714 29.79 98.8814 29.88C98.8014 29.96 98.6664 30 98.4764 30ZM109.997 27.165C109.997 27.625 109.927 28.045 109.787 28.425C109.657 28.795 109.417 29.115 109.067 29.385C108.727 29.645 108.252 29.85 107.642 30C107.042 30.15 106.277 30.225 105.347 30.225C104.417 30.225 103.647 30.15 103.037 30C102.427 29.85 101.947 29.645 101.597 29.385C101.257 29.115 101.017 28.795 100.877 28.425C100.747 28.045 100.682 27.625 100.682 27.165V22.05C100.682 21.59 100.747 21.175 100.877 20.805C101.017 20.425 101.257 20.1 101.597 19.83C101.947 19.56 102.427 19.35 103.037 19.2C103.647 19.05 104.417 18.975 105.347 18.975C106.277 18.975 107.042 19.05 107.642 19.2C108.252 19.35 108.727 19.56 109.067 19.83C109.417 20.1 109.657 20.425 109.787 20.805C109.927 21.175 109.997 21.59 109.997 22.05V27.165ZM104.087 26.625C104.087 26.825 104.162 26.995 104.312 27.135C104.462 27.265 104.807 27.33 105.347 27.33C105.887 27.33 106.232 27.265 106.382 27.135C106.532 26.995 106.607 26.825 106.607 26.625V22.59C106.607 22.4 106.532 22.24 106.382 22.11C106.232 21.97 105.887 21.9 105.347 21.9C104.807 21.9 104.462 21.97 104.312 22.11C104.162 22.24 104.087 22.4 104.087 22.59V26.625ZM118.296 30H114.396C114.206 30 114.046 29.965 113.916 29.895C113.796 29.825 113.701 29.695 113.631 29.505L112.161 25.83C112.071 25.61 111.996 25.42 111.936 25.26C111.876 25.09 111.826 24.93 111.786 24.78C111.746 24.63 111.716 24.475 111.696 24.315C111.686 24.145 111.681 23.94 111.681 23.7V19.74C111.681 19.55 111.721 19.415 111.801 19.335C111.891 19.245 112.031 19.2 112.221 19.2H114.606C114.796 19.2 114.941 19.245 115.041 19.335C115.141 19.415 115.191 19.55 115.191 19.74V23.88C115.191 23.98 115.201 24.08 115.221 24.18C115.241 24.28 115.271 24.385 115.311 24.495L116.016 26.595C116.046 26.695 116.081 26.765 116.121 26.805C116.161 26.835 116.221 26.85 116.301 26.85H116.466C116.546 26.85 116.606 26.835 116.646 26.805C116.686 26.765 116.721 26.695 116.751 26.595L117.456 24.48C117.496 24.37 117.526 24.265 117.546 24.165C117.566 24.065 117.576 23.965 117.576 23.865V19.74C117.576 19.55 117.616 19.415 117.696 19.335C117.786 19.245 117.926 19.2 118.116 19.2H120.471C120.661 19.2 120.796 19.245 120.876 19.335C120.966 19.415 121.011 19.55 121.011 19.74V23.7C121.011 23.94 121.001 24.145 120.981 24.315C120.971 24.475 120.946 24.63 120.906 24.78C120.866 24.93 120.816 25.09 120.756 25.26C120.696 25.42 120.621 25.61 120.531 25.83L119.061 29.505C118.991 29.695 118.891 29.825 118.761 29.895C118.641 29.965 118.486 30 118.296 30Z" fill="#34CFD9"></path> <path d="M81.9 46H79.575C79.385 46 79.245 45.96 79.155 45.88C79.075 45.79 79.035 45.65 79.035 45.46V35.74C79.035 35.55 79.075 35.415 79.155 35.335C79.245 35.245 79.385 35.2 79.575 35.2H86.265C86.455 35.2 86.59 35.245 86.67 35.335C86.76 35.415 86.805 35.55 86.805 35.74V37.525C86.805 37.715 86.76 37.855 86.67 37.945C86.59 38.025 86.455 38.065 86.265 38.065H82.44V39.625H85.05C85.24 39.625 85.375 39.67 85.455 39.76C85.545 39.84 85.59 39.975 85.59 40.165V41.965C85.59 42.155 85.545 42.295 85.455 42.385C85.375 42.465 85.24 42.505 85.05 42.505H82.44V45.46C82.44 45.65 82.395 45.79 82.305 45.88C82.225 45.96 82.09 46 81.9 46ZM97.3842 43.165C97.3842 43.625 97.3142 44.045 97.1742 44.425C97.0442 44.795 96.8042 45.115 96.4542 45.385C96.1142 45.645 95.6392 45.85 95.0292 46C94.4292 46.15 93.6642 46.225 92.7342 46.225C91.8042 46.225 91.0342 46.15 90.4242 46C89.8142 45.85 89.3342 45.645 88.9842 45.385C88.6442 45.115 88.4042 44.795 88.2642 44.425C88.1342 44.045 88.0692 43.625 88.0692 43.165V38.05C88.0692 37.59 88.1342 37.175 88.2642 36.805C88.4042 36.425 88.6442 36.1 88.9842 35.83C89.3342 35.56 89.8142 35.35 90.4242 35.2C91.0342 35.05 91.8042 34.975 92.7342 34.975C93.6642 34.975 94.4292 35.05 95.0292 35.2C95.6392 35.35 96.1142 35.56 96.4542 35.83C96.8042 36.1 97.0442 36.425 97.1742 36.805C97.3142 37.175 97.3842 37.59 97.3842 38.05V43.165ZM91.4742 42.625C91.4742 42.825 91.5492 42.995 91.6992 43.135C91.8492 43.265 92.1942 43.33 92.7342 43.33C93.2742 43.33 93.6192 43.265 93.7692 43.135C93.9192 42.995 93.9942 42.825 93.9942 42.625V38.59C93.9942 38.4 93.9192 38.24 93.7692 38.11C93.6192 37.97 93.2742 37.9 92.7342 37.9C92.1942 37.9 91.8492 37.97 91.6992 38.11C91.5492 38.24 91.4742 38.4 91.4742 38.59V42.625ZM108.489 43.165C108.489 43.625 108.419 44.045 108.279 44.425C108.149 44.795 107.909 45.115 107.559 45.385C107.219 45.645 106.749 45.85 106.149 46C105.549 46.15 104.784 46.225 103.854 46.225C102.924 46.225 102.159 46.15 101.559 46C100.959 45.85 100.484 45.645 100.134 45.385C99.7938 45.115 99.5538 44.795 99.4138 44.425C99.2838 44.045 99.2188 43.625 99.2188 43.165V35.74C99.2188 35.55 99.2588 35.415 99.3388 35.335C99.4288 35.245 99.5688 35.2 99.7588 35.2H102.114C102.304 35.2 102.439 35.245 102.519 35.335C102.609 35.415 102.654 35.55 102.654 35.74V42.58C102.654 42.78 102.729 42.95 102.879 43.09C103.029 43.22 103.364 43.285 103.884 43.285C104.414 43.285 104.754 43.22 104.904 43.09C105.054 42.95 105.129 42.78 105.129 42.58V35.74C105.129 35.55 105.169 35.415 105.249 35.335C105.339 35.245 105.479 35.2 105.669 35.2H107.949C108.139 35.2 108.274 35.245 108.354 35.335C108.444 35.415 108.489 35.55 108.489 35.74V43.165ZM113.275 46H111.025C110.835 46 110.695 45.96 110.605 45.88C110.525 45.79 110.485 45.65 110.485 45.46V35.74C110.485 35.55 110.525 35.415 110.605 35.335C110.695 35.245 110.835 35.2 111.025 35.2H112.585C112.775 35.2 112.935 35.23 113.065 35.29C113.205 35.35 113.34 35.455 113.47 35.605L116.38 38.935V35.74C116.38 35.55 116.42 35.415 116.5 35.335C116.59 35.245 116.73 35.2 116.92 35.2H119.17C119.36 35.2 119.495 35.245 119.575 35.335C119.665 35.415 119.71 35.55 119.71 35.74V45.46C119.71 45.65 119.665 45.79 119.575 45.88C119.495 45.96 119.36 46 119.17 46H116.92C116.73 46 116.59 45.96 116.5 45.88C116.42 45.79 116.38 45.65 116.38 45.46V43.615L113.815 40.51V45.46C113.815 45.65 113.77 45.79 113.68 45.88C113.6 45.96 113.465 46 113.275 46ZM127.374 46H122.319C122.129 46 121.989 45.96 121.899 45.88C121.819 45.79 121.779 45.65 121.779 45.46V35.74C121.779 35.55 121.819 35.415 121.899 35.335C121.989 35.245 122.129 35.2 122.319 35.2H127.374C128.624 35.2 129.549 35.45 130.149 35.95C130.759 36.45 131.064 37.22 131.064 38.26V42.94C131.064 43.98 130.759 44.75 130.149 45.25C129.549 45.75 128.624 46 127.374 46ZM125.184 38.065V43.165H126.969C127.209 43.165 127.384 43.105 127.494 42.985C127.614 42.865 127.674 42.68 127.674 42.43V38.785C127.674 38.535 127.614 38.355 127.494 38.245C127.384 38.125 127.209 38.065 126.969 38.065H125.184ZM82.95 54.35L82.245 56.63H84.6L83.895 54.35C83.855 54.26 83.81 54.195 83.76 54.155C83.72 54.115 83.67 54.095 83.61 54.095H83.235C83.175 54.095 83.12 54.115 83.07 54.155C83.03 54.195 82.99 54.26 82.95 54.35ZM82.095 61.46C82.095 61.65 82.05 61.79 81.96 61.88C81.88 61.96 81.745 62 81.555 62H79.35C79.16 62 79.02 61.96 78.93 61.88C78.85 61.79 78.81 61.65 78.81 61.46V57.5C78.81 57.2 78.855 56.855 78.945 56.465C79.045 56.075 79.195 55.62 79.395 55.1L80.7 51.695C80.76 51.525 80.85 51.4 80.97 51.32C81.1 51.24 81.265 51.2 81.465 51.2H85.5C85.69 51.2 85.845 51.24 85.965 51.32C86.095 51.4 86.19 51.525 86.25 51.695L87.555 55.1C87.755 55.62 87.9 56.075 87.99 56.465C88.09 56.855 88.14 57.2 88.14 57.5V61.46C88.14 61.65 88.095 61.79 88.005 61.88C87.925 61.96 87.79 62 87.6 62H85.335C85.135 62 84.985 61.96 84.885 61.88C84.795 61.79 84.75 61.65 84.75 61.46V59.36H82.095V61.46ZM94.4914 62H92.0614C91.8714 62 91.7314 61.96 91.6414 61.88C91.5614 61.79 91.5214 61.65 91.5214 61.46V54.095H89.3164C89.1264 54.095 88.9864 54.055 88.8964 53.975C88.8164 53.885 88.7764 53.745 88.7764 53.555V51.74C88.7764 51.55 88.8164 51.415 88.8964 51.335C88.9864 51.245 89.1264 51.2 89.3164 51.2H97.2364C97.4264 51.2 97.5614 51.245 97.6414 51.335C97.7314 51.415 97.7764 51.55 97.7764 51.74V53.555C97.7764 53.745 97.7314 53.885 97.6414 53.975C97.5614 54.055 97.4264 54.095 97.2364 54.095H95.0314V61.46C95.0314 61.65 94.9864 61.79 94.8964 61.88C94.8164 61.96 94.6814 62 94.4914 62ZM99.5352 62C99.3452 62 99.2052 61.96 99.1152 61.88C99.0352 61.79 98.9952 61.65 98.9952 61.46V59.675C98.9952 59.485 99.0352 59.35 99.1152 59.27C99.2052 59.18 99.3452 59.135 99.5352 59.135H101.02V54.095H99.5352C99.3452 54.095 99.2052 54.055 99.1152 53.975C99.0352 53.885 98.9952 53.745 98.9952 53.555V51.74C98.9952 51.55 99.0352 51.415 99.1152 51.335C99.2052 51.245 99.3452 51.2 99.5352 51.2H105.925C106.115 51.2 106.25 51.245 106.33 51.335C106.42 51.415 106.465 51.55 106.465 51.74V53.555C106.465 53.745 106.42 53.885 106.33 53.975C106.25 54.055 106.115 54.095 105.925 54.095H104.47V59.135H105.925C106.115 59.135 106.25 59.18 106.33 59.27C106.42 59.35 106.465 59.485 106.465 59.675V61.46C106.465 61.65 106.42 61.79 106.33 61.88C106.25 61.96 106.115 62 105.925 62H99.5352ZM117.467 59.165C117.467 59.625 117.397 60.045 117.257 60.425C117.127 60.795 116.887 61.115 116.537 61.385C116.197 61.645 115.722 61.85 115.112 62C114.512 62.15 113.747 62.225 112.817 62.225C111.887 62.225 111.117 62.15 110.507 62C109.897 61.85 109.417 61.645 109.067 61.385C108.727 61.115 108.487 60.795 108.347 60.425C108.217 60.045 108.152 59.625 108.152 59.165V54.05C108.152 53.59 108.217 53.175 108.347 52.805C108.487 52.425 108.727 52.1 109.067 51.83C109.417 51.56 109.897 51.35 110.507 51.2C111.117 51.05 111.887 50.975 112.817 50.975C113.747 50.975 114.512 51.05 115.112 51.2C115.722 51.35 116.197 51.56 116.537 51.83C116.887 52.1 117.127 52.425 117.257 52.805C117.397 53.175 117.467 53.59 117.467 54.05V59.165ZM111.557 58.625C111.557 58.825 111.632 58.995 111.782 59.135C111.932 59.265 112.277 59.33 112.817 59.33C113.357 59.33 113.702 59.265 113.852 59.135C114.002 58.995 114.077 58.825 114.077 58.625V54.59C114.077 54.4 114.002 54.24 113.852 54.11C113.702 53.97 113.357 53.9 112.817 53.9C112.277 53.9 111.932 53.97 111.782 54.11C111.632 54.24 111.557 54.4 111.557 54.59V58.625ZM122.167 62H119.917C119.727 62 119.587 61.96 119.497 61.88C119.417 61.79 119.377 61.65 119.377 61.46V51.74C119.377 51.55 119.417 51.415 119.497 51.335C119.587 51.245 119.727 51.2 119.917 51.2H121.477C121.667 51.2 121.827 51.23 121.957 51.29C122.097 51.35 122.232 51.455 122.362 51.605L125.272 54.935V51.74C125.272 51.55 125.312 51.415 125.392 51.335C125.482 51.245 125.622 51.2 125.812 51.2H128.062C128.252 51.2 128.387 51.245 128.467 51.335C128.557 51.415 128.602 51.55 128.602 51.74V61.46C128.602 61.65 128.557 61.79 128.467 61.88C128.387 61.96 128.252 62 128.062 62H125.812C125.622 62 125.482 61.96 125.392 61.88C125.312 61.79 125.272 61.65 125.272 61.46V59.615L122.707 56.51V61.46C122.707 61.65 122.662 61.79 122.572 61.88C122.492 61.96 122.357 62 122.167 62Z" fill="black"></path> <path d="M41.6297 65.8956C40.8153 65.4352 39.9914 65.0132 39.2058 64.5049C38.5351 64.0732 37.7878 63.7663 37.1267 63.3251C36.2836 62.7688 35.383 62.3084 34.5208 61.7808C33.8118 61.3396 33.0453 60.9847 32.3364 60.5435C30.928 59.6515 29.4238 58.9225 28.0155 58.0209C27.3448 57.5893 26.6167 57.2631 25.9269 56.8507C25.1508 56.3903 24.3844 55.9299 23.5987 55.4791C22.497 54.846 21.3856 54.2322 20.2838 53.5799C19.9389 53.3785 19.6227 53.1483 19.2299 53.0332C19.0671 52.9853 19.0192 52.851 19.0096 52.6975C19 52.5536 19.0096 52.4098 19.0096 52.2659C19.0096 43.7485 19.0096 35.2215 19 26.7041C19 26.3972 19.0575 26.2053 19.3545 26.0423C21.9413 24.5652 24.5185 23.0689 27.0957 21.5726C30.0178 19.8844 32.9495 18.1963 35.8717 16.5082C37.8549 15.3667 39.8285 14.2157 41.8021 13.0647C41.9458 12.9784 42.0321 12.9784 42.1854 13.0647C44.6859 14.5131 47.1865 15.9614 49.6775 17.4098C51.5649 18.5032 53.4235 19.6446 55.3397 20.6805C56.863 21.5054 58.3289 22.407 59.8331 23.2607C61.4809 24.2007 63.1192 25.1502 64.7575 26.1094C64.9013 26.1957 64.9779 26.2917 64.9779 26.4835C64.9683 28.469 65.0546 30.4544 64.9396 32.4303C64.8917 33.3319 64.9875 34.2048 64.9875 35.0968C64.9587 40.8326 64.9683 46.578 64.9875 52.3138C64.9875 52.8414 64.7863 53.0716 64.3168 53.2346C63.8953 53.3785 63.5216 53.6471 63.1384 53.8773C61.9312 54.6254 60.657 55.2777 59.4498 56.0162C58.0415 56.8699 56.6044 57.666 55.196 58.5101C54.1613 59.1335 53.0786 59.709 52.0343 60.3229C50.8176 61.0327 49.6008 61.7616 48.3937 62.481C47.3973 63.0757 46.3721 63.632 45.347 64.1883C44.3602 64.7255 43.4117 65.3201 42.444 65.8861C42.1854 65.9724 41.9075 66.0875 41.6297 65.8956ZM41.9554 26.2821C41.85 26.3204 41.7446 26.3684 41.6967 26.4835C41.6297 26.4931 41.5722 26.5027 41.5051 26.5219C41.4572 26.5027 41.4381 26.5219 41.4572 26.5698C39.5698 27.6537 37.7112 28.7855 35.7854 29.8022C34.9711 30.2338 34.6741 30.7422 34.789 31.6246C34.8369 32.0179 34.904 32.0467 35.2106 31.8644C35.977 31.404 36.7627 30.9628 37.5387 30.512C39.0237 29.6487 40.4992 28.7759 41.9842 27.9126C42.2141 27.9126 42.3386 27.7208 42.5111 27.6153C43.4692 27.059 44.5039 26.6274 45.3662 25.908C45.4236 25.8984 45.4811 25.8792 45.5482 25.8696H45.5865L45.5961 25.8313C45.941 25.6874 46.2188 25.3133 46.6691 25.6298C47.0236 25.8792 47.4164 26.0902 47.7997 26.3108C49.8595 27.5002 51.9194 28.6992 53.9792 29.8885C56.0678 31.0971 58.1564 32.3056 60.2546 33.495C60.5612 33.6676 60.6762 33.8595 60.6762 34.224C60.657 38.1086 60.6666 41.9932 60.6666 45.8778C60.6666 46.2231 60.5133 46.7507 60.7336 46.8658C61.0115 47.0192 61.3372 46.578 61.6726 46.4533C62.0462 46.3095 62.1133 46.0505 62.1133 45.6764C62.1037 41.811 62.0749 37.9359 62.1324 34.0705C62.142 33.236 61.9887 32.6605 61.1744 32.344C60.9444 32.2577 60.7336 32.0946 60.5133 31.9699C58.2714 30.675 56.0391 29.3898 53.7972 28.0949C51.3924 26.7041 48.9973 25.3133 46.5925 23.9225C46.4679 23.8554 46.3434 23.7307 46.1518 23.8458C45.8644 24.0088 45.5578 24.1335 45.3183 24.3733C44.6093 24.6707 43.9865 25.1311 43.3063 25.486L41.9554 26.2821ZM43.0285 55.5366C42.7315 55.7381 42.4153 55.9203 42.1087 56.1121C42.0512 56.1313 41.9842 56.1409 41.9267 56.1697C40.6908 56.8891 39.4453 57.6084 38.2094 58.3278C37.8932 58.5101 37.6249 58.5964 37.2513 58.3854C35.5747 57.3878 33.8789 56.4191 32.1927 55.4407C30.3148 54.3569 28.437 53.273 26.5592 52.1796C26.2718 52.0069 26.1664 52.0261 26.1855 52.381C26.2047 52.7167 26.1951 53.0524 26.1855 53.3881C26.176 53.5895 26.2526 53.695 26.4251 53.8006C27.5747 54.4528 28.7053 55.1242 29.855 55.786C32.3076 57.2056 34.7603 58.6156 37.2034 60.0447C37.5387 60.2462 37.807 60.2462 38.1423 60.0447C40.4321 58.7019 42.741 57.3687 45.0404 56.0354C45.2512 55.834 45.5961 55.834 45.759 55.5558C45.8739 55.5462 45.9697 55.5079 46.0656 55.4503C48.3937 54.0979 50.7314 52.7551 53.0691 51.4122C53.3565 51.2492 53.5002 51.0573 53.5002 50.6833C53.481 46.7986 53.4619 42.914 53.5098 39.039C53.5194 38.1757 53.3565 37.5715 52.5038 37.2933C52.3697 37.2453 52.2739 37.0631 52.1302 37.1398C51.9577 37.2357 52.0535 37.4276 52.0535 37.5715C52.0439 41.6959 52.0439 45.8203 52.0535 49.9351C52.0535 50.1941 51.996 50.3571 51.7469 50.4914C50.4823 51.2012 49.2272 51.9302 47.9817 52.6687C47.2248 53.1195 46.42 53.4936 45.7206 54.0308C45.3757 54.0979 45.1458 54.4144 44.7722 54.4624L43.0285 55.5366ZM41.85 52.8989C42.1854 52.6975 42.5303 52.4961 42.8656 52.2947C42.9231 52.2755 42.9901 52.2563 43.0476 52.2275C45.0021 51.1053 46.947 49.9831 48.9014 48.8513C49.0164 48.7841 49.1889 48.7362 49.1889 48.5635C49.1985 48.0647 49.1889 47.566 49.1889 47.0001C47.2823 48.1031 45.4715 49.1486 43.6608 50.1941C41.783 51.2875 39.8956 52.3714 38.0177 53.4648C37.7878 53.5991 37.5962 53.5895 37.3663 53.4457C36.4657 52.8989 35.5555 52.381 34.6357 51.8534C31.0047 49.7625 27.3831 47.6619 23.7425 45.5805C23.4167 45.3887 23.3209 45.1968 23.3209 44.8323C23.3305 40.7943 23.3305 36.7466 23.3305 32.7085C23.3305 32.5262 23.3784 32.3344 23.273 32.133C22.8706 32.3056 22.5257 32.5454 22.1521 32.7468C21.9413 32.8619 21.8838 32.9675 21.8838 33.1785C21.8838 37.4084 21.8838 41.6479 21.8838 45.8778C21.8838 46.0601 21.903 46.204 22.0946 46.3191C23.273 46.9905 24.4419 47.6715 25.6107 48.3429C27.5173 49.4459 29.4334 50.549 31.34 51.652C33.3711 52.8318 35.4022 54.0116 37.4333 55.1913C37.5962 55.2873 37.7686 55.2969 37.9315 55.2009C39.2345 54.4336 40.5375 53.6663 41.85 52.8989ZM49.1889 39.509C49.1889 38.2812 49.1697 37.0439 49.1985 35.8162C49.208 35.4517 49.0643 35.2695 48.7769 35.1064C46.6883 33.9074 44.5997 32.7085 42.5207 31.4903C42.147 31.2697 41.8692 31.2601 41.486 31.4807C39.3974 32.7085 37.2992 33.917 35.1914 35.116C34.9232 35.2695 34.7986 35.4517 34.7986 35.797C34.8178 38.2429 34.8274 40.6887 34.789 43.125C34.7795 43.5662 34.9615 43.7773 35.2872 43.9691C37.4046 45.1872 39.5219 46.4054 41.6393 47.6331C41.8884 47.777 42.08 47.7962 42.3291 47.6427C42.9327 47.2686 43.5554 46.9329 44.1686 46.578C45.7111 45.686 47.2536 44.794 48.7961 43.902C49.0835 43.7389 49.1889 43.5375 49.1793 43.1826C49.1697 41.974 49.1889 40.7463 49.1889 39.509ZM31.9436 42.0316C31.9436 41.7822 31.9436 41.6095 31.9436 41.4369C31.9436 37.3413 31.9531 33.2552 31.934 29.1596C31.934 28.8622 32.0298 28.68 32.2693 28.5457C34.6262 27.1837 36.9926 25.8313 39.3495 24.4596C41.3039 23.3278 43.2488 22.2056 45.1937 21.0546C45.8835 20.6422 46.535 20.2585 47.2536 20.9875C47.3589 21.093 47.5218 21.1505 47.656 21.2273C50.4535 22.8387 53.2607 24.4596 56.0583 26.071C56.6235 26.3972 57.1888 26.7233 57.8115 27.0878C57.8115 26.541 57.8115 26.0806 57.8115 25.6202C57.8115 25.4668 57.754 25.39 57.6103 25.2941C53.9122 23.1552 50.2236 21.0066 46.5254 18.8677C46.3434 18.7622 46.2188 18.8197 46.0464 18.9253C44.3889 19.9036 42.7219 20.8724 41.0548 21.8315C37.6537 23.7882 34.2525 25.7353 30.8609 27.6824C30.6789 27.788 30.4969 27.8935 30.4969 28.1812C30.5065 32.4207 30.5065 36.6507 30.4969 40.8902C30.4969 41.1108 30.5544 41.2451 30.7556 41.3506C31.1292 41.552 31.4933 41.7726 31.9436 42.0316ZM39.0716 19.6254C38.7171 19.2993 38.3052 19.1555 37.9603 18.9157C37.7591 18.7814 37.6249 18.791 37.4142 18.9253C35.7471 19.9132 34.0609 20.8724 32.3843 21.8411C30.449 22.9538 28.5041 24.0664 26.5592 25.1694C26.2718 25.3325 26.1951 25.5243 26.1951 25.8408C26.2047 31.6246 26.2047 37.4084 26.1855 43.2018C26.1855 43.6142 26.358 43.7964 26.655 43.9691C27.7376 44.583 28.8202 45.1872 29.9029 45.8107C32.4418 47.2782 34.9711 48.7553 37.5004 50.2325C37.6441 50.3092 37.7495 50.338 37.8932 50.2325C38.0752 50.1078 38.2764 50.0118 38.4585 49.9063C39.1483 49.4939 39.1483 49.4843 38.4489 49.0815C36.6764 48.0551 34.8944 47.0384 33.122 46.0121C31.4262 45.0338 29.74 44.0554 28.0538 43.0771C27.7568 42.9044 27.6227 42.703 27.6322 42.3385C27.6706 41.13 27.6706 39.9118 27.6706 38.7033C27.6706 34.646 27.6514 30.5887 27.6418 26.5219C27.6418 26.3396 27.6706 26.2341 27.8718 26.119C28.9448 25.5243 29.9987 24.8913 31.0717 24.2678C32.9783 23.1648 34.8944 22.0617 36.801 20.9587C37.5387 20.5367 38.2956 20.0858 39.0716 19.6254ZM44.8871 29.572C45.1554 29.7255 45.3853 29.8502 45.6153 29.9844C49.0835 31.9795 52.5421 33.9842 56.0103 35.9888C56.2211 36.1135 56.384 36.2574 56.384 36.5835C56.3648 41.8685 56.3744 47.1631 56.384 52.4481C56.384 52.7263 56.2882 52.8702 56.0487 53.0044C52.6571 54.9516 49.2751 56.8987 45.9027 58.865C45.5865 59.0472 45.2033 59.1527 44.9733 59.4884C45.2991 59.6994 45.6344 59.8817 45.9506 60.1119C46.2284 60.3229 46.4679 60.2366 46.7266 60.0831C50.3098 58.0017 53.893 55.9203 57.4858 53.8581C57.7253 53.7142 57.8211 53.5895 57.8211 53.3114C57.8115 47.4605 57.8115 41.6095 57.8211 35.7682C57.8211 35.4901 57.7445 35.3174 57.5049 35.1927C56.9876 34.905 56.4702 34.598 55.9529 34.3007C52.8295 32.4975 49.7062 30.6942 46.5829 28.891C46.4296 28.8047 46.2859 28.7471 46.1326 28.8334C45.7302 29.0541 45.3278 29.3034 44.8871 29.572ZM43.4213 61.9535C43.2871 61.8671 43.2105 61.8192 43.1339 61.7712C42.1279 61.071 41.9171 61.0614 40.9015 61.7329C40.8057 61.8 40.7195 61.8767 40.6045 61.9631C41.0165 62.2124 41.4093 62.4522 41.8021 62.6824C41.9363 62.7592 42.08 62.7592 42.2141 62.6824C42.6069 62.4522 42.9901 62.2124 43.4213 61.9535ZM42.0033 16.278C41.5626 16.5273 41.1219 16.7671 40.7003 17.0357C40.6237 17.0837 40.6716 17.1988 40.777 17.2563C41.1219 17.4481 41.4572 17.64 41.7925 17.8414C41.9458 17.9277 42.0991 17.9085 42.2428 17.8318C42.5686 17.6496 42.8848 17.4481 43.2201 17.2659C43.3255 17.2083 43.3829 17.0932 43.3159 17.0549C42.8943 16.7767 42.4536 16.5369 42.0033 16.278ZM60.6857 27.0782C60.6857 27.3563 60.7145 27.5673 60.6762 27.7688C60.5516 28.4977 60.7911 28.9869 61.5097 29.2267C61.6917 29.2938 61.9121 29.5145 62.0366 29.4569C62.2282 29.3802 62.1037 29.0924 62.1228 28.9006C62.142 28.6992 62.1037 28.4786 62.1324 28.2771C62.1708 27.9798 62.0366 27.7975 61.7875 27.6729C61.4426 27.5002 61.0977 27.3084 60.6857 27.0782ZM21.8838 28.6512C21.8838 28.8622 21.8838 29.0445 21.8838 29.2171C21.8742 29.4761 21.9125 29.5912 22.1904 29.3898C22.4778 29.1787 22.8131 29.0253 23.1293 28.843C23.2443 28.7759 23.3305 28.7088 23.3209 28.5553C23.3113 28.1524 23.3209 27.7592 23.3209 27.3563C23.3209 27.2508 23.3209 27.0782 23.1485 27.1741C22.7461 27.3851 22.3341 27.5961 21.9796 27.8743C21.7401 28.0757 21.9509 28.421 21.8838 28.6512ZM62.1133 49.4939C61.6438 49.7529 61.2414 49.9831 60.839 50.2133C60.7145 50.2804 60.6762 50.3955 60.6762 50.5298C60.6762 50.9135 60.6857 51.2971 60.6762 51.6712C60.6762 51.911 60.7432 51.9494 60.954 51.8247C61.2893 51.6137 61.6247 51.4218 61.9696 51.23C62.0654 51.1724 62.1133 51.1245 62.1133 51.019C62.1133 50.5394 62.1133 50.0502 62.1133 49.4939ZM23.3017 51.9302C23.4167 50.2996 23.1485 49.8584 21.8838 49.5802C21.8838 50.031 21.8838 50.4722 21.8838 50.9231C21.8838 51.0382 21.8646 51.1533 22.0179 51.2396C22.4299 51.4602 22.8131 51.7383 23.3017 51.9302Z" fill="#34CFD9"></path> </svg> 