<svg xmlns="http://www.w3.org/2000/svg" width="72" height="67" viewBox="0 0 72 67">
    <defs>
        <linearGradient id="a" x1="64.838%" x2="50.065%" y1="13.824%" y2="99.621%">
            <stop offset="0%" stop-color="#B0E4EF"/>
            <stop offset="100%" stop-color="#44C9E6"/>
        </linearGradient>
        <linearGradient id="b" x1="58.217%" x2="50%" y1="8.604%" y2="-101.976%">
            <stop offset="0%" stop-color="#9CE2F1"/>
            <stop offset="100%" stop-color="#44C9E6"/>
        </linearGradient>
        <linearGradient id="c" x1="64.838%" x2="50%" y1="13.824%" y2="113.25%">
            <stop offset="0%" stop-color="#98DEEE"/>
            <stop offset="100%" stop-color="#44C9E6"/>
        </linearGradient>
        <linearGradient id="d" x1="50.475%" x2="74.228%" y1="58.273%" y2="-46.629%">
            <stop offset="0%" stop-color="#3EB0C9"/>
            <stop offset="100%" stop-color="#57ECEF"/>
        </linearGradient>
    </defs>
    <g fill="none" fill-rule="nonzero">
        <ellipse cx="38.491" cy="26.018" fill="url(#a)" rx="20.781" ry="20.75"/>
        <path fill="url(#b)" d="M53.085 19.796a11.474 11.474 0 0 1 2.269 6.863c0 2.997-1.237 5.765-3.345 8.007l1.283 4.782h3.895l4.1-4.645 1.1-6.794.23-4.05-4.056-4.575-5.476.412z"/>
        <path fill="url(#c)" d="M7.95 39.997l.71 2.814s8.386 17.18 27.265 23.564c0 0 17.176-7.321 24.805-19.744L50.2 37.457s-5.04 4.004-12.533 4.004c-7.492 0-17.664-4.461-17.664-13.658s10.539-12.56 10.539-12.56l-4.49-1.098H14.57L7.287 31.669l.664 8.328z"/>
        <path fill="url(#d)" d="M71.392 20.683c-.321-.32-8.496-10.226-33.996-18.989-.806-.55-1.243-.72-1.31-.51C12.398 7.217.778 19.892.778 20.684c0 .792 3.39 12.702 5.59 17.552.184.412 3.116 5.582 5.293 8.396-1.283-2.814-2.68-5.262-2.68-9.471 0-11.874 9.21-21.528 20.734-21.94.275 0 .573 0 .848.023l-2.75-2.745s11.066-1.853 25.271 6.726c0 0 .207.434 0 1.716 0 0 6.69 2.882 7.263 8.487.573 5.605-2.978 8.808-5.842 9.266 0 0 1.49-2.311-.802-3.546-.481-.275-1.054-.39-1.627-.366-4.376 0-4.88 4.987-4.88 4.987-.046.252-.046.503-.046.755 0 0-.733 7.298 12.28 7.16 0 0 6.6-7.457 8.34-14.16.642-2.471 1.1-4.325 1.398-5.697.733-1.945 1.444-4.81 2.131-6.891l.092-.252z"/>
        <path fill="#3594A8" d="M47.426 21.443c.184-.092.78-.39 1.467-1.098 1.374.183 2.726.617 2.726.617-2.497-1.51-5.91-2.402-9.691-2.379 0 0 1.443 2.06 5.453 2.906l.045-.046z" opacity=".895"/>
        <path fill="#44C9E6" d="M71.644 19.556C57.85 7.658 40.416 1.476 36.796.286l-.344-.117-.458-.14-.802.257c-3.62 1.19-21.056 7.372-34.848 19.27l-.298.257.069.396c.022.094 1.512 9.122 6.598 19.317 3.001 5.996 6.644 11.198 10.814 15.514 5.11 5.273 11.066 9.169 17.688 11.595l.39.14.389.14.412-.163.39-.14c6.62-2.427 12.555-6.323 17.687-11.595 4.17-4.293 7.813-9.519 10.814-15.514 5.087-10.172 6.599-19.224 6.599-19.317l.068-.397-.32-.233zm-7.607 19.317c-2.933 5.856-6.484 10.965-10.562 15.164-5.063 5.202-10.929 9.029-17.481 11.385-6.553-2.356-12.418-6.16-17.482-11.362-4.078-4.199-7.63-9.285-10.562-15.14C3.528 30.1 1.88 22.191 1.535 20.372 15.671 8.31 33.542 2.293 35.994 1.499c2.428.793 20.322 6.812 34.458 18.874-.343 1.796-2.016 9.705-6.415 18.5z"/>
    </g>
</svg>
