<svg xmlns="http://www.w3.org/2000/svg" width="64" height="64" viewBox="0 0 64 64">
    <defs>
        <linearGradient id="a" x1="50%" x2="50%" y1="0%" y2="100%">
            <stop offset="0%" stop-color="#59EFF0"/>
            <stop offset="100%" stop-color="#44C9E6"/>
        </linearGradient>
    </defs>
    <g fill="none" fill-rule="evenodd">
        <circle cx="32" cy="32" r="32" fill="#3EB0C9"/>
        <path fill="#E9EFF4" d="M16.424 59.636c-.006.012-.014.02-.02.032.048.012.094.029.142.039l-.122-.071z"/>
        <path fill="url(#a)" fill-rule="nonzero" d="M14.414 13.912l-.064-.132c.534-.081.57-.463.976-.603.462-.155.304.014.758 0 .368-.017.592.256 1.012.057-.102.182-.268.308-.434.432-.346.25-.7.506-1.112.603-.412.096-.896-.006-1.136-.357z"/>
        <path fill="url(#a)" fill-rule="nonzero" d="M20.806 42.18c-.008.281-.174.526-.318.763a7.722 7.722 0 0 0-1.118 3.48c-.086 1.173-.034 2.62-1.06 3.198-.586.325-1.41.267-1.8.815-.122.166-.18.375-.238.57l-.758 2.744a39.936 39.936 0 0 1-.982-.1c.384.122.65.64.42.995-.368-.193-.852.036-1.056.404-.194.367-.166.813-.058 1.218.334 1.196 1.36 2.16 2.568 2.447-.21.397-.852.223-1.244-.042a14.838 14.838 0 0 1-5.874-7.983c-.34-1.138-.558-2.347-1.224-3.326-.556-.827-1.396-1.432-1.952-2.26-.78-1.187-.926-2.728-1.83-3.814-.506-.62-1.288-1.38-.84-2.044.18-.273.564-.532.412-.821-.05-.094-.152-.152-.232-.231-.304-.325-.094-.835.058-1.254.252-.727.252-1.504.144-2.281a6.56 6.56 0 0 1-1.736-2.464c-.224-.575-.522-1.295-1.142-1.303-.16-.446-.326-.893-.486-1.339-.058.16-.216.26-.39.281.48-7.295 3.432-13.915 8.026-19.045.102-.044.202-.101.304-.16 1.09-.633 1.958-1.583 3.012-2.275.216-.143.462-.28.73-.253.26.022.506.287.412.532a.554.554 0 0 1-.21.245 22.294 22.294 0 0 1-4.024 2.718c-.172.086-.354.188-.432.361-.146.295.1.662.412.77.31.107.658.043.976-.029-.268.381-.348.893-.21 1.34.296.027.39-.375.478-.656.36-1.116 2.146-1.57 2.03-2.746.484.251.976-.311 1.272-.771.296-.469.954-.929 1.316-.518.02.229.048.46.07.691.636-.16 1.28-.325 1.916-.484-.362.253-.484.793-.276 1.182.21.388.73.583 1.142.424-.006.339-.31.598-.586.8-.7.525-1.452 1.065-2.268 1.324l.188.389a.178.178 0 0 1-.064.016c-.52.05-1.07-.323-1.626-.251-.34.044-.758.044-.954.388-.028.044-.15.648-.064.598.304-.173.606-.347.904-.518.092.245.114.518.064.785.368-.036.752.042 1.078.237-.34.785-1.214 1.311-2.074 1.246-.008-.26-.022-.518-.03-.777-.708-.058-1.286.548-1.64 1.153-.36.612-.634 1.312-1.228 1.7-.36.245-.802.339-1.192.54-.382.21-.736.606-.656 1.03.036.202.166.39.16.598-.022.389-.476.57-.78.821-.52.433-.65 1.226-1.206 1.606-.404.281-.94.275-1.41.419-.47.143-.94.612-.75 1.066-.232.08-.514-.094-.536-.339a15.76 15.76 0 0 0-1.602 5.215c.412.287.83-.368.91-.865.086-.496.52-1.145.924-.85-.094.713-.188 1.418-.28 2.132-.022.137-.036.28.03.402.08.152.252.216.384.323.368.317.318.879.34 1.361a3.46 3.46 0 0 0 .528 1.67c-.03-.101-.05-.201-.072-.303.564.072 1.15-.11 1.576-.484.224-.201.412-.46.694-.562.29-.108.608-.03.904.05.918.251 1.894.532 2.508 1.251.31.367.506.83.876 1.13.838.706 2.256.395 3.022 1.18.614.634.5 1.656.334 2.527-.42-.23-.982.346-.736.757.224-.245.484-.504.81-.504.332-.008.622.446.376.655.578-.735 1.994-.432 2.218.483.81.057 1.626.113 2.436.179-.156 1.184 2.332 1.253 2.282 2.443zM15.88 8.878c-.312.156-.742-.02-.858-.353-.118-.333.104-.746.444-.825.214-.05.512-.026.578-.24.02-.064.008-.136.008-.203-.008-.402.346-.735.728-.836.382-.1.786-.023 1.174.055a1.5 1.5 0 0 1 .112.942l-.798.034c.024.45-.02 1.014-.43 1.18-.368.148-.848-.128-1.154.124M20.022 4.396c.726-.353 1.34-.91 2.056-1.283 1.232-.642 2.67-.699 4.054-.743l9.45-.299c-.73.406-1.46.814-2.192 1.22-.596.334-1.274.675-1.928.486-.014.534.464 1.03.992 1.025-1.294.813-3.09-.018-4.456.664-.572.287-1.034.827-1.664.928-.364.06-.742-.04-1.104.041-.606.134-.988.717-1.436 1.151-.516.502-1.274.845-1.948.606-.674-.24-1.026-1.257-.486-1.733.266-.233.646-.272.96-.436.314-.163.562-.6.326-.865-.102-.116-.27-.16-.364-.285-.102-.134-.092-.324-.176-.47-.32-.571-1.21.196-1.816-.033M29.588 7.095c.426-.1.796-.355 1.194-.542.398-.187.872-.297 1.262-.1.116.295-.218.563-.512.668a3.53 3.53 0 0 1-1.766.157M55.342 10.322a1.002 1.002 0 0 1-.362-.023c-.542-.117-.954-.542-1.418-.85a3.72 3.72 0 0 0-3.686-.226c.274-.404.412-.904.382-1.395l-.166.059c-1.894-1.115-4.114-2.272-6.18-1.523-.478.177-.91.44-1.394.61-.514.182-1.084.257-1.524.58-.448.323-.686 1.036-.302 1.423.326.331.846.242 1.302.287.448.044.962.497.716.887-1.98.94-3.966 1.889-5.946 2.837.91.3 1.512 1.348 1.316 2.303-.666.117-1.308-.293-1.98-.337-.976-.051-1.908.822-1.928 1.813-.028.99.868 1.907 1.844 1.892.73-.008 1.446-.454 2.154-.266.028-.676.484-1.248.952-1.732.91-.926 2.21-1.762 3.426-1.307.398.146.738.418 1.07.688.73.587 1.46 1.18 2.192 1.775.232-.242.462-.486.694-.72l1.2 1.284c.202-.14.412-.272.614-.412.144.382.296.755.442 1.137.058-.418.108-.828.158-1.24.478.014.984.028 1.416-.191.434-.214.752-.742.57-1.196-.094-.242-.318-.433-.362-.69-.094-.515.628-.866 1.098-.632.462.227.694.763.89 1.255.108-.5.208-.991.318-1.49a11.832 11.832 0 0 0 1.914 3.325 7.76 7.76 0 0 0-4.43.457 2.313 2.313 0 0 0 1.96.975c.34-.008.716-.087.976.132.196.168.246.44.282.69.116.705.232 1.401.34 2.098-.782-.652-1.908-.579-2.928-.6-1.02-.028-2.212-.314-2.588-1.274a2.098 2.098 0 0 0-.468 1.74c-1.056-.256-2.27-.666-2.574-1.724-.824.309-1.85-.226-2.074-1.085-.08-.3-.102-.668-.362-.828-.158-.095-.362-.081-.55-.059-1.568.185-3.13.362-4.69.546-.852.104-1.734.207-2.486.632-.752.418-1.35 1.24-1.264 2.108a9.825 9.825 0 0 0-3.482 3.598c-.26.455-.484.977-.382 1.49.072.396.332.734.412 1.123.138.668-.238 1.314-.396 1.974-.448 1.878.956 3.647 2.258 5.069.614.66 1.324 1.378 2.22 1.415.556.022 1.084-.227 1.604-.435a11.476 11.476 0 0 1 4.704-.802c-.362.287.014.91.464 1.005.448.096.932-.052 1.366.102.99.36.854 1.834.406 2.796.224-.044.456-.09.686-.132-.122.323-.246.646-.368.96 1.358.175 1.872 1.989 1.556 3.345-.31 1.359-1.104 2.605-1.126 4-.006.764.224 1.505.456 2.23.58 1.842 1.158 3.684 1.738 5.532 1.62.197 2.55-1.895 4.054-2.549.564-.25 1.228-.3 1.67-.727.426-.41.288-1.373-.26-1.373.744-.08 1.38-.771 1.402-1.535.008-.213-.022-.426.006-.637.05-.3.238-.565.418-.823 1.148-1.673 1.892-3.59 2.636-5.482.194-.508.39-1.006.584-1.513l2.202-5.652c.288-.74.578-1.474.866-2.217-.398.668-1.438.58-2.032.081-.6-.497-.912-1.255-1.382-1.878-.398-.536-.934-1.011-1.122-1.665-.108-.374-.088-.778-.152-1.168-.146-.845-.694-1.547-1.07-2.31-.376-.764-.572-1.753-.044-2.423a93.43 93.43 0 0 1 4.152 8.305c.138-.44.456-.822.86-1.036.296-.162.628-.227.94-.359.824-.368 1.394-1.255 1.394-2.165-.008-.91-.578-1.797-1.41-2.156-.412-.177-.882-.234-1.272-.477-.39-.234-.672-.77-.426-1.16.23-.367.788-.36 1.17-.154.384.213.666.572 1.026.814.26.177.564.293.846.455 1.526.887 1.902 2.906 2.222 4.666.174.947.37 1.887.602 2.81.008-.198.006-.403.006-.6-.008-8.533-3.258-16.288-8.566-22.075zm2.926 10.66c-.21-.014-.404-.154-.572-.286-.274-.22-.55-.477-.63-.822-.094-.41.1-.882-.116-1.247-.102-.177-.282-.286-.434-.41a2.31 2.31 0 0 1-.796-1.284c-.094-.44.042-1.027.484-1.1.21-.037.44.081.534.278l-.296.162c.498.06.73.823.348 1.152-.05.05-.116.095-.116.168 0 .045.028.088.066.118.31.345.774.47 1.178.689.404.213.802.609.738 1.064-.13.05-.252.095-.382.146-.138.14-.028.39.116.528.144.138.332.278.34.483 0 .221-.246.376-.462.361zM58.476 43.56l-.522.375c.182.65-.182 1.411-.8 1.665-.326.134-.76.193-.87.532-.092.288.128.58.158.881.048.5-.412.873-.744 1.245-.332.372-.508 1.07-.066 1.293.102.053.22.063.334.074.48.042 1.006.056 1.398-.228 1.124-.814.056-3.023 1.166-3.86.158-.118.356-.203.442-.382.262-.526-.704-1.048-.496-1.596z"/>
    </g>
</svg>
