<svg xmlns="http://www.w3.org/2000/svg" width="42" height="72" viewBox="0 0 42 72">
    <defs>
        <linearGradient id="a" x1="64.838%" x2="50.065%" y1="13.824%" y2="99.621%">
            <stop offset="0%" stop-color="#B0E4EF"/>
            <stop offset="100%" stop-color="#44C9E6"/>
        </linearGradient>
        <linearGradient id="b" x1="58.217%" x2="50%" y1="8.604%" y2="-101.976%">
            <stop offset="0%" stop-color="#9CE2F1"/>
            <stop offset="100%" stop-color="#44C9E6"/>
        </linearGradient>
        <linearGradient id="c" x1="64.838%" x2="50%" y1="13.824%" y2="113.25%">
            <stop offset="0%" stop-color="#98DEEE"/>
            <stop offset="100%" stop-color="#44C9E6"/>
        </linearGradient>
        <linearGradient id="d" x1="50.475%" x2="74.228%" y1="58.273%" y2="-46.629%">
            <stop offset="0%" stop-color="#3EB0C9"/>
            <stop offset="100%" stop-color="#57ECEF"/>
        </linearGradient>
    </defs>
    <g fill="none" fill-rule="evenodd">
        <path fill="#45C0D3" d="M24.122 38.833c3.91-3.885 10.344-6.768 14.128-5.64 1.135 3.76-1.64 10.152-5.677 14.038-3.91 3.885-7.82 4.261-11.73 3.133-1.01-3.635-.631-7.52 3.279-11.53z"/>
        <path fill="url(#a)" fill-rule="nonzero" d="M20.968 50.49c-1.135-3.886-.756-7.771 3.154-11.657 3.91-3.885 10.344-6.768 14.128-5.64"/>
        <path fill="#45C0D3" d="M17.815 38.833c-3.91-3.885-10.344-6.768-14.128-5.64-1.135 3.76 1.64 10.152 5.676 14.038 3.91 3.885 7.821 4.261 11.732 3.133 1.009-3.635.63-7.52-3.28-11.53z"/>
        <path fill="url(#a)" fill-rule="nonzero" d="M20.968 50.49c1.136-3.886.757-7.771-3.153-11.657-3.91-3.885-10.344-6.768-14.128-5.64"/>
        <path fill="#3F9BB0" d="M19.707 31.564h2.523v22.56h-2.523z"/>
        <path fill="url(#a)" fill-rule="nonzero" d="M2.136 51.102C2 51.102 2 52.43 2 53.145 2 62.543 10.55 70 21 70s19-7.457 19-16.855c0-.817-.136-2.145-.136-2.145H2.136v.102z"/>
        <path fill="#3F9BB0" d="M21.059 70C31.476 70 40 62.44 40 53.145c0-.817-.135-2.145-.27-2.145H17" opacity=".248"/>
        <path fill="#97DEED" d="M1 48h41v4H1z"/>
        <path fill="#3F9BB0" d="M8 68h25v4H8z"/>
        <ellipse cx="22.453" cy="14.757" fill="url(#a)" fill-rule="nonzero" rx="12.122" ry="11.769"/>
        <path fill="url(#b)" fill-rule="nonzero" d="M30.967 11.227a6.389 6.389 0 0 1 1.323 3.893c0 1.7-.722 3.27-1.952 4.541l.749 2.712h2.272l2.392-2.634.642-3.853.133-2.297-2.365-2.595-3.194.233z"/>
        <path fill="url(#c)" fill-rule="nonzero" d="M4.638 22.685l.414 1.596s4.892 9.744 15.904 13.364c0 0 10.02-4.152 14.47-11.197l-6.143-5.204s-2.94 2.271-7.311 2.271c-4.37 0-10.304-2.53-10.304-7.746 0-5.216 6.147-7.124 6.147-7.124l-2.62-.623H8.5l-4.25 9.94.388 4.723z"/>
        <path fill="url(#d)" fill-rule="nonzero" d="M41.645 11.73c-.187-.181-4.956-5.8-19.83-10.769-.47-.312-.726-.409-.765-.29C7.233 4.093.454 11.282.454 11.732c0 .45 1.978 7.204 3.261 9.955.107.233 1.818 3.166 3.088 4.762-.749-1.596-1.564-2.985-1.564-5.372 0-6.735 5.373-12.21 12.095-12.444.16 0 .334 0 .495.013l-1.604-1.557s6.455-1.05 14.742 3.815c0 0 .12.247 0 .973 0 0 3.902 1.635 4.236 4.814.334 3.179-1.737 4.996-3.408 5.255 0 0 .869-1.31-.468-2.011a1.818 1.818 0 0 0-.949-.208c-2.552 0-2.846 2.829-2.846 2.829-.027.143-.027.285-.027.428 0 0-.428 4.14 7.164 4.061 0 0 3.849-4.23 4.864-8.031.375-1.402.642-2.453.816-3.231.427-1.103.842-2.728 1.243-3.909l.053-.142z"/>
        <path fill="#3594A8" fill-rule="nonzero" d="M27.665 12.162c.107-.052.455-.221.856-.623.802.104 1.59.35 1.59.35-1.457-.856-3.448-1.362-5.653-1.35 0 0 .842 1.168 3.18 1.649l.027-.026z" opacity=".895"/>
        <path fill="#44C9E6" fill-rule="nonzero" d="M41.792 11.091C33.746 4.343 23.576.837 21.464.162l-.2-.066-.268-.08-.467.146C18.417.837 8.246 4.343.2 11.092l-.173.145.04.225c.013.053.882 5.174 3.849 10.956 1.75 3.4 3.876 6.351 6.308 8.799 2.98 2.99 6.455 5.2 10.318 6.576l.227.08.227.079.24-.093.228-.08c3.863-1.375 7.324-3.585 10.318-6.575 2.432-2.435 4.557-5.399 6.308-8.8 2.967-5.768 3.85-10.902 3.85-10.955l.04-.225-.188-.133zm-4.437 10.956c-1.71 3.321-3.782 6.22-6.161 8.6-2.954 2.952-6.375 5.121-10.198 6.458-3.822-1.337-7.243-3.493-10.197-6.444-2.38-2.382-4.45-5.266-6.161-8.587-2.58-5.002-3.542-9.487-3.743-10.52C9.142 4.715 19.566 1.3 20.996.85c1.417.45 11.855 3.864 20.101 10.705-.2 1.018-1.176 5.504-3.742 10.492z"/>
    </g>
</svg>
