<?xml version="1.0" encoding="UTF-8"?>
<svg width="63px" height="63px" viewBox="0 0 63 63" version="1.1" xmlns="http://www.w3.org/2000/svg" xmlns:xlink="http://www.w3.org/1999/xlink">
    <!-- Generator: Sketch 51.3 (57544) - http://www.bohemiancoding.com/sketch -->
    <title>Group 48</title>
    <desc>Created with Sketch.</desc>
    <defs>
        <linearGradient x1="15.4905225%" y1="106.029073%" x2="122.515024%" y2="-21.1838942%" id="linearGradient-1">
            <stop stop-color="#44C9E6" offset="0%"></stop>
            <stop stop-color="#44C9E6" offset="100%"></stop>
        </linearGradient>
        <linearGradient x1="26.1439732%" y1="94.7513641%" x2="87.5015501%" y2="2.52356151%" id="linearGradient-2">
            <stop stop-color="#FFFFFF" offset="0%"></stop>
            <stop stop-color="#18EBD6" offset="100%"></stop>
        </linearGradient>
    </defs>
    <g id="Page-1" stroke="none" stroke-width="1" fill="none" fill-rule="evenodd">
        <g id="ARACON-Copy-2" transform="translate(-427.000000, -1234.000000)">
            <g id="Group-48" transform="translate(427.000000, 1234.000000)">
                <circle id="Oval-4" fill="url(#linearGradient-1)" cx="31.5" cy="31.5" r="30.5"></circle>
                <g id="Group-49" fill="url(#linearGradient-2)" fill-rule="nonzero">
                    <path d="M53.7680973,9.220324 C47.8660669,3.30606713 39.8504124,-0.0122114103 31.4950357,3.37705278e-05 C14.0980537,0.00284685262 -0.00281309099,14.1081369 0,31.5050639 C0.00281309099,48.9019909 14.1079822,63.0026476 31.5049643,63 C48.9019463,62.9971869 63.0026476,48.8920624 63,31.4951354 C62.9986762,23.1396197 59.6777395,15.126969 53.7680973,9.220324 Z M51.8287193,21.0352688 L52.6759561,21.4456478 C57.8785196,24.0932545 61.0953719,27.6278094 61.0953719,31.4933151 C61.0953719,35.3588209 57.8586625,38.9132328 52.6759561,41.5409825 L51.8287193,41.9513615 C53.4445918,35.0730448 53.4445918,27.9137509 51.8287193,21.0352688 Z M60.3209445,24.8147273 C58.4110212,22.6890301 56.098164,20.9634524 53.5165739,19.7379415 L53.536431,19.7379415 C52.7906309,19.3628087 52.0074333,19.0053818 51.1866726,18.6656608 C50.2092062,15.3683976 48.7482192,12.2344587 46.851203,9.36594237 C45.4315849,7.21525838 43.6826697,5.30103875 41.6684965,3.69344508 C51.0489966,7.13930516 58.0617015,15.0801395 60.3209445,24.8147273 Z M41.5559729,17.9044739 C44.2970818,18.3822014 46.9872242,19.1157539 49.5914846,20.0953684 C51.610291,27.5576478 51.610291,35.4223634 49.5914846,42.8846428 C46.9875552,43.866574 44.2972473,44.6022777 41.5559729,45.0821564 C42.267354,40.587844 42.6170046,36.0435581 42.6017808,31.4933151 C42.6170046,26.9430721 42.267354,22.3989517 41.5559729,17.9044739 Z M45.2427768,10.4316041 C46.7630043,12.7237695 47.9820656,15.2019294 48.8700095,17.8051886 C46.3686751,16.964408 43.8031362,16.3291479 41.1985449,15.9055309 L41.1985449,15.9187689 C40.7924669,13.7859562 40.2506987,11.6812744 39.5768806,9.61746501 C38.8376996,7.15816936 37.6873109,4.84184447 36.1746953,2.76678274 C39.6496901,4.09058608 42.7937329,6.73819275 45.2427768,10.4316041 Z M40.688879,31.4933151 C40.7080742,36.1497934 40.3339331,40.7996526 39.5702616,45.3932502 C36.8946811,45.7655698 34.1964304,45.9513987 31.4950357,45.9492476 C28.7957922,45.9510678 26.0998582,45.7652389 23.4264289,45.3932502 C22.6630884,40.7996526 22.2889473,36.1497934 22.3078115,31.4933151 C22.2887818,26.8368369 22.6630884,22.1869777 23.4264289,17.5933801 C28.7825541,16.8566835 34.2141364,16.8566835 39.5702616,17.5933801 C40.3337676,22.1869777 40.7080742,26.8368369 40.688879,31.4933151 Z M31.4950357,1.91292959 C33.838175,1.91292959 36.0687907,5.07681956 37.7698834,10.1999385 C38.3492146,11.9733385 38.8242961,13.7788408 39.1929765,15.6076751 C34.0815901,14.9581841 28.9084813,14.9581841 23.797095,15.6076751 C24.1656099,13.7788408 24.6408568,11.973173 25.2201881,10.1999385 C26.9212807,5.07681956 29.1518964,1.91292959 31.4950357,1.91292959 Z M23.4131908,9.59760796 C22.7392073,11.6614174 22.1976045,13.7660992 21.7915266,15.8989118 C19.1846186,16.3243491 16.6165975,16.9619259 14.113443,17.8051886 C15.0013868,15.2019294 16.2204481,12.7237695 17.7406756,10.4316041 C20.2161956,6.7580498 23.3337623,4.05749099 26.8087571,2.76678274 C25.3002784,4.83638378 24.1523718,7.1457587 23.4131908,9.59760796 Z M21.4340986,45.0821564 L21.4274795,45.0755374 C18.6863706,44.5978098 15.9960627,43.8644228 13.3919679,42.8846428 C11.3734923,35.4223634 11.3734923,27.5576478 13.3919679,20.0953684 C15.9982139,19.1152575 18.6908384,18.381705 21.4340986,17.9044739 C20.722883,22.3987862 20.3730668,26.9430721 20.3882906,31.4933151 C20.3730668,36.0435581 20.7227175,40.587844 21.4340986,45.0821564 Z M10.5788769,10.5772224 C13.6168497,7.52899977 17.2828036,5.17991075 21.3215749,3.69344508 C19.3131934,5.2980602 17.5689115,7.20764651 16.1521065,9.35270434 C14.2552558,12.2212207 12.7942688,15.3553251 11.8166369,18.6524228 C11.0003441,18.9878414 10.216981,19.3452683 9.46687855,19.7247035 C6.88413007,20.9540203 4.57110738,22.6842313 2.66250788,24.8147273 C3.91433337,19.4205597 6.65742803,14.4870756 10.5788769,10.5772224 Z M10.3141154,21.4456478 L11.1613522,21.0352688 C9.54547962,27.9137509 9.54547962,35.0728794 11.1613522,41.9513615 L10.3141154,41.5409825 C5.1115518,38.8933758 1.89469952,35.3588209 1.89469952,31.4933151 C1.89469952,27.6278094 5.13140891,24.0733974 10.3141154,21.4456478 Z M10.5788769,52.4094078 C6.65775898,48.4950868 3.91681551,43.556804 2.66912692,38.1586649 C4.57772641,40.2891609 6.89074911,42.0193719 9.47349758,43.2486888 C10.2192976,43.6238215 11.0024953,43.9812484 11.8232559,44.3209695 C12.8008878,47.6180671 14.2618749,50.7521715 16.1587256,53.6206879 C17.5723865,55.7698826 19.3145172,57.6841022 21.3215749,59.2931852 C17.2828036,57.806885 13.6166842,55.4576305 10.5788769,52.4094078 Z M17.7406756,52.5550262 L17.7406756,52.5484072 C16.2204481,50.2562417 15.0013868,47.7780819 14.113443,45.1748226 C16.6165975,46.0180853 19.1846186,46.6556621 21.7915266,47.0810994 C22.1976045,49.2139121 22.7392073,51.3185939 23.4131908,53.3824033 C24.1543575,55.834749 25.3047463,58.1441239 26.8153761,60.2132285 C23.3403814,58.9225203 20.2426718,56.2285805 17.7406756,52.5550262 Z M31.4950357,61.0737007 C29.1518964,61.0737007 26.9212807,57.9098107 25.2201881,52.7866918 C24.6408568,51.0134572 24.1656099,49.2077895 23.797095,47.3789552 C26.3500578,47.7065965 28.9212229,47.8700862 31.4950357,47.8687624 C34.0688485,47.8700862 36.6401791,47.7065965 39.1929765,47.3789552 C38.8242961,49.2077895 38.3492146,51.0132917 37.7698834,52.7866918 C36.0687907,57.9098107 33.838175,61.0737007 31.4950357,61.0737007 Z M39.5768806,53.3890223 C40.2506987,51.3252129 40.7924669,49.2205311 41.1985449,47.0877184 C43.8054528,46.6622811 46.3734739,46.0247043 48.8766285,45.1814416 C47.9886846,47.7847009 46.7696233,50.2628607 45.2493959,52.5550262 C42.7738758,56.2285805 39.6563091,58.9291393 36.1813144,60.2198475 C37.6896275,58.150412 38.8376996,55.8408716 39.5768806,53.3890223 Z M52.4111946,52.4094078 C49.3732218,55.4576305 45.7072678,57.806885 41.6684965,59.2931852 C43.676878,57.6885701 45.4211599,55.7788183 46.8379649,53.6339259 C48.7349811,50.7654096 50.1959682,47.6314706 51.1734345,44.3342075 C51.9897274,43.9987888 52.7730905,43.6413619 53.5231929,43.2619268 C56.1059414,42.0326099 58.4189641,40.302399 60.3275636,38.171903 C59.0757381,43.5660706 56.3324779,48.4995547 52.4111946,52.4094078 Z" id="Shape"></path>
                </g>
            </g>
        </g>
    </g>
</svg>