<?xml version="1.0" encoding="UTF-8"?>
<svg width="80px" height="75px" viewBox="0 0 80 75" version="1.1" xmlns="http://www.w3.org/2000/svg" xmlns:xlink="http://www.w3.org/1999/xlink">
    <!-- Generator: Sketch 51.3 (57544) - http://www.bohemiancoding.com/sketch -->
    <title>Group 44</title>
    <desc>Created with Sketch.</desc>
    <defs>
        <linearGradient x1="64.8383539%" y1="13.8241169%" x2="50.0653333%" y2="99.6205677%" id="linearGradient-1">
            <stop stop-color="#B0E4EF" offset="0%"></stop>
            <stop stop-color="#44C9E6" offset="100%"></stop>
        </linearGradient>
        <linearGradient x1="58.2165882%" y1="8.60396491%" x2="50%" y2="-101.975839%" id="linearGradient-2">
            <stop stop-color="#9CE2F1" offset="0%"></stop>
            <stop stop-color="#44C9E6" offset="100%"></stop>
        </linearGradient>
        <linearGradient x1="64.8383539%" y1="13.8241169%" x2="50%" y2="113.249861%" id="linearGradient-3">
            <stop stop-color="#98DEEE" offset="0%"></stop>
            <stop stop-color="#44C9E6" offset="100%"></stop>
        </linearGradient>
        <linearGradient x1="50%" y1="60.3682653%" x2="74.464241%" y2="-47.6708699%" id="linearGradient-4">
            <stop stop-color="#44C9E6" offset="0%"></stop>
            <stop stop-color="#18EBD6" offset="100%"></stop>
        </linearGradient>
    </defs>
    <g id="Page-1" stroke="none" stroke-width="1" fill="none" fill-rule="evenodd">
        <g id="ARACON-Copy-2" transform="translate(-1053.000000, -1225.000000)" fill-rule="nonzero">
            <g id="Group-44" transform="translate(1053.000000, 1225.000000)">
                <g id="Group-2">
                    <g id="Group">
                        <g id="vectorial">
                            <ellipse id="Oval" fill="url(#linearGradient-1)" cx="42.7677725" cy="29.1250868" rx="23.0895058" ry="23.2277735"></ellipse>
                            <path d="M58.9838863,22.1593157 C60.6385917,24.4129475 61.50413,27.0763306 61.50413,29.8421515 C61.50413,33.1969897 60.1294516,36.2957335 57.7874069,38.8054599 L59.2129993,44.1578354 L63.5406906,44.1578354 L68.0974949,38.9591166 L69.3194313,31.3531092 L69.5740014,26.8202361 L65.068111,21.6983455 L58.9838863,22.1593157 Z" id="Shape" fill="url(#linearGradient-2)"></path>
                            <path d="M8.83358158,44.7724623 L9.62274882,47.922425 C9.62274882,47.922425 18.9400135,67.1551239 39.9165877,74.3001611 C39.9165877,74.3001611 59.000677,66.1051363 67.4778605,52.1992036 L55.7763033,41.9298131 C55.7763033,41.9298131 50.1757617,46.4114673 41.8513202,46.4114673 C33.5268788,46.4114673 22.2239675,41.417624 22.2239675,31.1226241 C22.2239675,20.8276242 33.9341909,17.0630346 33.9341909,17.0630346 L28.9446175,15.8337809 L16.1906567,15.8337809 L8.09532837,35.4506216 L8.83358158,44.7724623 Z" id="Shape" fill="url(#linearGradient-3)"></path>
                            <path d="M79.3240352,23.1526481 C78.9676371,22.7941157 69.8846712,11.7052228 41.5510219,1.89680242 C40.6554848,1.28049651 40.1700731,1.09022594 40.0947867,1.32599071 C13.77712,8.07716419 0.865538253,22.265625 0.865538253,23.1526481 C0.865538253,24.0396711 4.63317536,37.3713305 7.07704807,42.8005345 C7.28070413,43.2615046 10.5392011,49.0492409 12.9576168,52.1992036 C11.5320244,49.0492409 9.97914692,46.3090295 9.97914692,41.5968902 C9.97914692,28.3055843 20.2128639,17.4983953 33.0177387,17.0374252 C33.3232227,17.0374252 33.6541638,17.0374252 33.9596479,17.0630346 L30.904807,13.9899003 C30.904807,13.9899003 43.2005416,11.9155347 58.9838863,21.5190794 C58.9838863,21.5190794 59.2129993,22.005659 58.9838863,23.4397883 C58.9838863,23.4397883 66.4173324,26.6665793 67.0537576,32.9408952 C67.6901828,39.2152111 63.7443466,42.8005345 60.5622207,43.3127235 C60.5622207,43.3127235 62.2169262,40.7261688 59.6712255,39.3432584 C59.1366283,39.0359449 58.5002031,38.9078977 57.8637779,38.9335071 C53.0014895,38.9335071 52.4414353,44.5163678 52.4414353,44.5163678 C52.3905213,44.7980718 52.3905213,45.0797757 52.3905213,45.3614797 C52.3905213,45.3614797 51.5758971,53.5308951 66.0354773,53.3772384 C66.0354773,53.3772384 73.3670955,45.0285568 75.301828,37.5249872 C76.0146242,34.7591664 76.5237644,32.6848007 76.8547055,31.1482335 C77.6693297,28.9714301 78.458497,25.7648122 79.2222072,23.434352 L79.3240352,23.1526481 Z" id="Shape" fill="url(#linearGradient-4)"></path>
                            <path d="M52.6960054,24.0031963 C52.8996615,23.9007585 53.5615437,23.5678356 54.3252539,22.7739425 C55.8526743,22.9788182 57.3546378,23.4653978 57.3546378,23.4653978 C54.579824,21.7751739 50.7867299,20.7764052 46.5863236,20.8020147 C46.5863236,20.8020147 48.1901151,23.1068654 52.6450914,24.0544152 C52.6450914,24.0544152 52.6705484,24.0288057 52.6960054,24.0031963 Z" id="Shape" fill="#EAF9FC" opacity="0.895424107"></path>
                            <path d="M79.6040623,21.891076 C64.2789438,8.57238192 44.9061611,1.65188402 40.883954,0.320014611 L40.5020988,0.189439179 L39.9929587,0.0327486606 L39.1019634,0.320014611 C35.0797563,1.65188402 15.7069736,8.57238192 0.381855112,21.891076 L0.0509140149,22.1783419 L0.127285037,22.6222984 C0.152742045,22.7267588 1.80744753,32.8332972 7.45890318,44.24559 C10.7937712,50.9571672 14.8414353,56.7808314 19.4746107,61.6121224 C25.1515234,67.5141319 31.7703453,71.8753514 39.1274204,74.5913204 L39.5601896,74.7480109 L39.9929587,74.9047014 L40.4511848,74.7218958 L40.883954,74.5652053 C48.2410291,71.8492363 54.834394,67.4880169 60.5367637,61.5860073 C65.1699391,56.7808314 69.2176032,50.9310521 72.5524712,44.2194749 C78.2039269,32.8332972 79.8840894,22.7006437 79.8840894,22.5961833 L79.9604604,22.1522268 L79.6040623,21.891076 Z M71.1523358,43.5143675 C67.8938389,50.0692542 63.9480027,55.7884581 59.4166554,60.4891737 C53.7906567,66.312838 47.2736628,70.5957121 39.9929587,73.2333359 C32.7122546,70.5957121 26.1952607,66.3389531 20.569262,60.5152888 C16.0379147,55.8145732 12.0920785,50.1214844 8.83358158,43.5665977 C3.92037915,33.695095 2.08747461,24.8420807 1.7056195,22.805104 C17.4125931,9.30360434 37.2690589,2.56591204 39.9929587,1.6779991 C42.6914015,2.56591204 62.5733243,9.30360434 78.2802979,22.805104 C77.8984428,24.8159657 76.0400812,33.66898 71.1523358,43.5143675 Z" id="Shape" fill="#44C9E6"></path>
                        </g>
                    </g>
                </g>
            </g>
        </g>
    </g>
</svg>