<svg xmlns="http://www.w3.org/2000/svg" xmlns:xlink="http://www.w3.org/1999/xlink" width="119" height="211" viewBox="0 0 119 211">
    <defs>
        <path id="a" d="M115.807 204.818h-4.335l-28.861-93.626a3.1 3.1 0 0 0-3.873-2.046 3.09 3.09 0 0 0-2.052 3.863l.807 2.614H41.507l17.448-56.599c.18.007.362.014.545.014.183 0 .364-.007.545-.014l12.573 40.784a3.1 3.1 0 0 0 3.873 2.046 3.09 3.09 0 0 0 2.051-3.863L66 57.3c3.903-2.25 6.537-6.454 6.537-11.264 0-7.169-5.847-13.001-13.035-13.001s-13.036 5.832-13.036 13.001c0 4.81 2.634 9.015 6.538 11.264L19.076 167.357a3.09 3.09 0 0 0 2.052 3.862A3.1 3.1 0 0 0 25 169.173l1.364-4.424.015.001H86.13l-71.172 37 5.969-19.362a3.09 3.09 0 0 0-2.052-3.863 3.1 3.1 0 0 0-3.872 2.046l-7.477 24.247H3.192a3.095 3.095 0 0 0-3.099 3.091A3.095 3.095 0 0 0 3.192 211h112.616a3.095 3.095 0 0 0 3.099-3.09 3.095 3.095 0 0 0-3.1-3.092zM52.662 46.037c0-3.76 3.068-6.82 6.838-6.82s6.838 3.06 6.838 6.82c0 3.76-3.068 6.82-6.838 6.82s-6.838-3.06-6.838-6.82zm-13.06 75.768h34.405L29.698 153.93l9.903-32.125zm-5.761 36.764l46.498-33.713L90.73 158.57H33.84zm-11.375 46.25l71.124-36.976 11.398 36.975H22.466z"/>
        <filter id="b" width="103.4%" height="102.2%" x="-1.7%" y="-1.1%" filterUnits="objectBoundingBox">
            <feGaussianBlur in="SourceAlpha" result="shadowBlurInner1" stdDeviation="1.5"/>
            <feOffset dy="1" in="shadowBlurInner1" result="shadowOffsetInner1"/>
            <feComposite in="shadowOffsetInner1" in2="SourceAlpha" k2="-1" k3="1" operator="arithmetic" result="shadowInnerInner1"/>
            <feColorMatrix in="shadowInnerInner1" values="0 0 0 0 0 0 0 0 0 0 0 0 0 0 0 0 0 0 0.266049592 0"/>
        </filter>
        <linearGradient id="c" x1="50%" x2="50%" y1="0%" y2="100%">
            <stop offset="0%" stop-color="#6AACF4"/>
            <stop offset="100%" stop-color="#18EBD6"/>
        </linearGradient>
    </defs>
    <g fill="none" fill-rule="nonzero">
        <g>
            <use fill="#33414A" xlink:href="#a"/>
            <use fill="#000" filter="url(#b)" xlink:href="#a"/>
        </g>
        <path fill="url(#c)" d="M59.5 16.518c-16.32 0-29.597 13.242-29.597 29.519a29.441 29.441 0 0 0 7.393 19.518 3.105 3.105 0 0 0 4.374.274 3.085 3.085 0 0 0 .275-4.362 23.274 23.274 0 0 1-5.844-15.43C36.1 33.17 46.598 22.7 59.5 22.7c12.902 0 23.398 10.469 23.398 23.337a23.274 23.274 0 0 1-5.847 15.434 3.085 3.085 0 0 0 .273 4.363c.59.518 1.321.773 2.05.773.858 0 1.712-.353 2.324-1.046a29.442 29.442 0 0 0 7.398-19.524c0-16.277-13.277-29.52-29.596-29.52z" opacity=".83"/>
        <path fill="url(#c)" d="M59.5 0C34.048 0 13.342 20.652 13.342 46.037c0 14.274 6.476 27.505 17.768 36.301a3.09 3.09 0 0 0 1.905.655c.921 0 1.834-.408 2.445-1.188a3.085 3.085 0 0 0-.535-4.339C25.147 69.85 19.54 58.394 19.54 46.036c0-21.975 17.926-39.854 39.96-39.854 22.034 0 39.96 17.879 39.96 39.855 0 12.35-5.603 23.801-15.371 31.418a3.086 3.086 0 0 0-.533 4.338 3.105 3.105 0 0 0 4.35.532c11.28-8.796 17.75-22.023 17.75-36.288C105.659 20.652 84.952 0 59.5 0z" opacity=".403"/>
    </g>
</svg>
