<?xml version="1.0" encoding="UTF-8"?>
<svg width="36px" height="18px" viewBox="0 0 36 18" version="1.1" xmlns="http://www.w3.org/2000/svg" xmlns:xlink="http://www.w3.org/1999/xlink">
    <!-- Generator: Sketch 51.2 (57519) - http://www.bohemiancoding.com/sketch -->
    <title>Shape</title>
    <desc>Created with Sketch.</desc>
    <defs>
        <linearGradient x1="0%" y1="34.4559871%" x2="100%" y2="69.975764%" id="linearGradient-1">
            <stop stop-color="#6AACF4" offset="0%"></stop>
            <stop stop-color="#18EBD6" offset="100%"></stop>
        </linearGradient>
    </defs>
    <g id="Page-1" stroke="none" stroke-width="1" fill="none" fill-rule="evenodd">
        <g id="ARACON" transform="translate(-90.000000, -3340.000000)" fill="url(#linearGradient-1)" fill-rule="nonzero">
            <g id="Group-14" transform="translate(90.000000, 3055.000000)">
                <g id="Group-13" transform="translate(0.000000, 285.000000)">
                    <g id="departures">
                        <path d="M34.7280741,2.09932418 C32.2534074,0.655046703 29.4415556,1.42224725 27.5188148,2.32007143 L21.7871111,4.99648352 L11.9293333,0.0315989011 L6.05874074,0.284167582 L14.198963,8.5479478 L9.01118519,11.0157033 L3.61377778,8.95873352 L0,10.6460852 L3.26585185,14.7071374 C2.92081481,15.1193324 2.60814815,15.6996841 2.892,16.309261 C3.26274074,17.1053159 4.35851852,17.506533 6.15592593,17.5064588 C6.52451852,17.5064588 6.92266667,17.4896209 7.35,17.4557967 C9.32303704,17.2997308 11.4621481,16.7954093 12.7997037,16.1708489 L33.2882963,6.60372527 C35.0579259,5.77733242 35.9394074,4.90962363 35.9831111,3.95082692 C36.0057778,3.4535522 35.8064444,2.72848352 34.7280741,2.09932418 Z M32.6620741,5.25914011 L12.1735556,14.8263379 C11.034,15.3584753 9.16311111,15.8043462 7.40725926,15.9621923 C5.61259259,16.1235247 4.65303704,15.9209505 4.33318519,15.7489368 C4.39903704,15.6586648 4.522,15.5168407 4.74888889,15.3168626 L5.28103704,14.8478489 L2.3397037,11.1903874 L3.672,10.5682005 L9.07518519,12.627544 L16.7173333,8.99226099 L9.45807407,1.62274451 L11.6077778,1.53024725 L21.7625185,6.64459615 L28.1447407,3.66450824 C30.4756296,2.57612637 32.4394815,2.48088462 33.982,3.38093407 L33.9820741,3.38100824 C34.3707407,3.60776374 34.5065926,3.80559066 34.503037,3.88317857 C34.5028889,3.88851923 34.4583704,4.42050824 32.6620741,5.25914011 Z" id="Shape"></path>
                    </g>
                </g>
            </g>
        </g>
    </g>
</svg>