<?xml version="1.0" encoding="UTF-8"?>
<svg width="34px" height="18px" viewBox="0 0 34 18" version="1.1" xmlns="http://www.w3.org/2000/svg" xmlns:xlink="http://www.w3.org/1999/xlink">
    <!-- Generator: Sketch 51.2 (57519) - http://www.bohemiancoding.com/sketch -->
    <title>bus</title>
    <desc>Created with Sketch.</desc>
    <defs>
        <linearGradient x1="0%" y1="50%" x2="113.579963%" y2="50%" id="linearGradient-1">
            <stop stop-color="#6AACF4" offset="0%"></stop>
            <stop stop-color="#18EBD6" offset="100%"></stop>
        </linearGradient>
    </defs>
    <g id="Page-1" stroke="none" stroke-width="1" fill="none" fill-rule="evenodd">
        <g id="ARACON" transform="translate(-91.000000, -3475.000000)" fill="url(#linearGradient-1)" fill-rule="nonzero">
            <g id="Group-14" transform="translate(90.000000, 3055.000000)">
                <g id="bus" transform="translate(1.000000, 420.000000)">
                    <path d="M34,8.41605976 C34,3.77545892 30.2810375,0 25.7098792,0 L4.96725833,0 C2.228275,1.02189395e-15 0,2.26219763 0,5.04279008 L0,15.4195314 L3.81154167,15.4195314 C4.13581667,16.8941054 5.43419167,18 6.98303333,18 C8.531875,18 9.83032083,16.8941054 10.1545958,15.4195314 L24.0360167,15.4195314 C24.3602917,16.8941054 25.6586667,18 27.2075083,18 C28.75635,18 30.054725,16.8941054 30.379,15.4195314 L34,15.4195314 L34,8.41605976 Z M32.2898,6.3977788 L28.5694208,6.3977788 L28.5694208,2.07142201 C30.3455667,2.89967441 31.7162625,4.47449014 32.2898,6.3977788 Z M27.1527542,1.59329645 L27.1527542,6.39770689 L23.1389125,6.39770689 L23.1389125,1.43811597 L25.7098792,1.43811597 C26.2047208,1.43818788 26.6873083,1.49197611 27.1527542,1.59329645 Z M6.84724583,6.3977788 L6.84724583,1.43818788 L10.8611583,1.43818788 L10.8611583,6.3977788 L6.84724583,6.3977788 Z M12.2777542,1.43818788 L16.2916667,1.43818788 L16.2916667,6.3977788 L12.2777542,6.3977788 L12.2777542,1.43818788 Z M17.7083333,1.43818788 L21.7222458,1.43818788 L21.7222458,6.3977788 L17.7083333,6.3977788 L17.7083333,1.43818788 Z M4.96725833,1.43818788 L5.43050833,1.43818788 L5.43050833,6.3977788 L1.41666667,6.3977788 L1.41666667,5.04279008 C1.41666667,3.05521443 3.00949583,1.43818788 4.96725833,1.43818788 Z M6.98303333,16.5617402 C5.97202917,16.5617402 5.1495125,15.7267283 5.1495125,14.7003655 C5.1495125,13.6740028 5.97202917,12.838919 6.98303333,12.838919 C7.9940375,12.838919 8.81655417,13.6739308 8.81655417,14.7003655 C8.816625,15.7267283 7.9940375,16.5617402 6.98303333,16.5617402 Z M6.98303333,11.400803 C5.43419167,11.400803 4.13574583,12.5066976 3.81154167,13.9813435 L1.41666667,13.9813435 L1.41666667,7.83596668 L21.7222458,7.83596668 L21.7222458,13.9813435 L10.1545958,13.9813435 C9.83032083,12.5066976 8.53194583,11.400803 6.98303333,11.400803 Z M27.2075083,16.5617402 C26.196575,16.5617402 25.3739875,15.7267283 25.3739875,14.7003655 C25.3739875,13.6740028 26.1965042,12.838919 27.2075083,12.838919 C28.2185125,12.838919 29.0410292,13.6739308 29.0410292,14.7003655 C29.0410292,15.7267283 28.2185125,16.5617402 27.2075083,16.5617402 Z M30.3790708,13.9812716 C30.0547958,12.5066257 28.7564208,11.4007311 27.2075792,11.4007311 C25.6587375,11.4007311 24.3602917,12.5066257 24.0360875,13.9812716 L23.1389833,13.9812716 L23.1389833,7.83589477 L32.5594625,7.83589477 C32.5750458,8.02724567 32.5834042,8.22068194 32.5834042,8.41598786 L32.5834042,9.83360965 L30.5633083,9.83360965 L30.5633083,11.2717975 L32.5833333,11.2717975 L32.5834042,13.9812716 L30.3790708,13.9812716 Z" id="Shape"></path>
                </g>
            </g>
        </g>
    </g>
</svg>