<?xml version="1.0" encoding="UTF-8"?>
<svg width="36px" height="52px" viewBox="0 0 36 52" version="1.1" xmlns="http://www.w3.org/2000/svg" xmlns:xlink="http://www.w3.org/1999/xlink">
    <!-- Generator: Sketch 51.2 (57519) - http://www.bohemiancoding.com/sketch -->
    <title>Group 23</title>
    <desc>Created with Sketch.</desc>
    <defs>
        <linearGradient x1="-17.8710938%" y1="100%" x2="122.016059%" y2="0%" id="linearGradient-1">
            <stop stop-color="#6AACF4" offset="0%"></stop>
            <stop stop-color="#18EBD6" offset="100%"></stop>
        </linearGradient>
    </defs>
    <g id="Page-1" stroke="none" stroke-width="1" fill="none" fill-rule="evenodd">
        <g id="ARACON" transform="translate(-991.000000, -3259.000000)" fill="url(#linearGradient-1)" fill-rule="nonzero">
            <g id="Group-19" transform="translate(991.000000, 3259.000000)">
                <g id="placeholder">
                    <g id="Group-23">
                        <path d="M18,0 C8.0748,0 0,8.20096875 0,18.28125 C0,21.6870469 0.9289,25.0107812 2.6869,27.8943437 L16.9754,51.2798203 C17.2491,51.7278125 17.7313,52 18.2499,52 C18.2539,52 18.2578,52 18.2618,52 C18.7849,51.9958359 19.2681,51.7152187 19.5368,51.2594062 L33.4611,27.6473437 C35.1221,24.8247187 36,21.5859922 36,18.28125 C36,8.20096875 27.9252,0 18,0 Z M30.8866,26.0830781 L18.2272,47.5501406 L5.2367,26.2890469 C3.7734,23.8889219 2.98,21.1199219 2.98,18.28125 C2.98,9.88101562 9.729,3.0265625 18,3.0265625 C26.271,3.0265625 33.01,9.88101562 33.01,18.28125 C33.01,21.0357266 32.2689,23.7339375 30.8866,26.0830781 Z" id="Shape"></path>
                        <path d="M18,9.140625 C13.0374,9.140625 9,13.2411094 9,18.28125 C9,23.2891953 12.9717,27.421875 18,27.421875 C23.0903,27.421875 27,23.2341484 27,18.28125 C27,13.2411094 22.9626,9.140625 18,9.140625 Z M18,24.3953125 C14.6743,24.3953125 11.98,21.6497734 11.98,18.28125 C11.98,14.9211562 14.6916,12.1671875 18,12.1671875 C21.3084,12.1671875 24.01,14.9211562 24.01,18.28125 C24.01,21.6006172 21.3784,24.3953125 18,24.3953125 Z" id="Shape"></path>
                    </g>
                </g>
            </g>
        </g>
    </g>
</svg>